# MagicaVoxel @ Ephtracy

# group
g tree1

# material
mtllib tree1.mtl
usemtl palette

# normals
vn -1 0 0
vn 1 0 0
vn 0 0 1
vn 0 0 -1
vn 0 -1 0
vn 0 1 0

# texcoords
vt 0.306641 0.5
vt 0.822266 0.5
vt 0.826172 0.5
vt 0.830078 0.5

# verts
v -9 5 9
v -9 5 7
v -9 8 9
v -9 8 7
v -8 6 7
v -8 6 -1
v -8 8 8
v -8 8 7
v -8 13 8
v -8 13 -1
v -4 0 5
v -4 0 2
v -4 6 5
v -4 6 2
v -2 11 -1
v -2 11 -2
v -2 13 1
v -2 13 -1
v -2 14 1
v -2 14 -2
v -6 5 9
v -6 5 7
v -6 6 8
v -6 6 7
v -6 8 9
v -6 8 8
v -1 0 5
v -1 0 2
v -1 6 5
v -1 6 2
v 2 6 8
v 2 6 -1
v 2 11 1
v 2 11 -1
v 2 13 8
v 2 13 1
v 3 11 1
v 3 11 -2
v 3 14 1
v 3 14 -2
v -9 5 9
v -9 8 9
v -6 5 9
v -6 8 9
v -8 8 8
v -8 13 8
v -6 6 8
v -6 8 8
v 2 6 8
v 2 13 8
v -4 0 5
v -4 6 5
v -1 0 5
v -1 6 5
v -2 13 1
v -2 14 1
v 2 11 1
v 2 13 1
v 3 11 1
v 3 14 1
v -9 5 7
v -9 8 7
v -8 6 7
v -8 8 7
v -6 5 7
v -6 6 7
v -4 0 2
v -4 6 2
v -1 0 2
v -1 6 2
v -8 6 -1
v -8 13 -1
v -2 11 -1
v -2 13 -1
v 2 6 -1
v 2 11 -1
v -2 11 -2
v -2 14 -2
v 3 11 -2
v 3 14 -2
v -4 0 5
v -1 0 5
v -4 0 2
v -1 0 2
v -9 5 9
v -6 5 9
v -9 5 7
v -6 5 7
v -6 6 8
v 2 6 8
v -8 6 7
v -6 6 7
v -4 6 5
v -1 6 5
v -4 6 2
v -1 6 2
v -8 6 -1
v 2 6 -1
v 2 11 1
v 3 11 1
v -2 11 -1
v 2 11 -1
v -2 11 -2
v 3 11 -2
v -9 8 9
v -6 8 9
v -8 8 8
v -6 8 8
v -9 8 7
v -8 8 7
v -8 13 8
v 2 13 8
v -2 13 1
v 2 13 1
v -8 13 -1
v -2 13 -1
v -2 14 1
v 3 14 1
v -2 14 -2
v 3 14 -2

# faces
f 3/3/1 2/3/1 1/3/1
f 4/3/1 2/3/1 3/3/1
f 8/2/1 6/2/1 5/2/1
f 9/2/1 8/2/1 7/2/1
f 10/2/1 6/2/1 8/2/1
f 10/2/1 8/2/1 9/2/1
f 13/1/1 12/1/1 11/1/1
f 14/1/1 12/1/1 13/1/1
f 18/4/1 16/4/1 15/4/1
f 19/4/1 18/4/1 17/4/1
f 20/4/1 16/4/1 18/4/1
f 20/4/1 18/4/1 19/4/1
f 21/3/2 22/3/2 23/3/2
f 23/3/2 22/3/2 24/3/2
f 21/3/2 23/3/2 25/3/2
f 25/3/2 23/3/2 26/3/2
f 27/1/2 28/1/2 29/1/2
f 29/1/2 28/1/2 30/1/2
f 31/2/2 32/2/2 33/2/2
f 33/2/2 32/2/2 34/2/2
f 31/2/2 33/2/2 35/2/2
f 35/2/2 33/2/2 36/2/2
f 37/4/2 38/4/2 39/4/2
f 39/4/2 38/4/2 40/4/2
f 43/3/3 42/3/3 41/3/3
f 44/3/3 42/3/3 43/3/3
f 48/2/3 46/2/3 45/2/3
f 49/2/3 48/2/3 47/2/3
f 50/2/3 46/2/3 48/2/3
f 50/2/3 48/2/3 49/2/3
f 53/1/3 52/1/3 51/1/3
f 54/1/3 52/1/3 53/1/3
f 58/4/3 56/4/3 55/4/3
f 59/4/3 58/4/3 57/4/3
f 60/4/3 56/4/3 58/4/3
f 60/4/3 58/4/3 59/4/3
f 61/3/4 62/3/4 63/3/4
f 63/3/4 62/3/4 64/3/4
f 61/3/4 63/3/4 65/3/4
f 65/3/4 63/3/4 66/3/4
f 67/1/4 68/1/4 69/1/4
f 69/1/4 68/1/4 70/1/4
f 71/2/4 72/2/4 73/2/4
f 73/2/4 72/2/4 74/2/4
f 71/2/4 73/2/4 75/2/4
f 75/2/4 73/2/4 76/2/4
f 77/4/4 78/4/4 79/4/4
f 79/4/4 78/4/4 80/4/4
f 83/1/5 82/1/5 81/1/5
f 84/1/5 82/1/5 83/1/5
f 87/3/5 86/3/5 85/3/5
f 88/3/5 86/3/5 87/3/5
f 92/2/5 90/2/5 89/2/5
f 93/2/5 90/2/5 92/2/5
f 93/2/5 92/2/5 91/2/5
f 94/2/5 90/2/5 93/2/5
f 95/2/5 93/2/5 91/2/5
f 96/2/5 90/2/5 94/2/5
f 97/2/5 95/2/5 91/2/5
f 97/2/5 96/2/5 95/2/5
f 98/2/5 90/2/5 96/2/5
f 98/2/5 96/2/5 97/2/5
f 102/4/5 100/4/5 99/4/5
f 103/4/5 102/4/5 101/4/5
f 104/4/5 100/4/5 102/4/5
f 104/4/5 102/4/5 103/4/5
f 105/3/6 106/3/6 107/3/6
f 107/3/6 106/3/6 108/3/6
f 105/3/6 107/3/6 109/3/6
f 109/3/6 107/3/6 110/3/6
f 111/2/6 112/2/6 113/2/6
f 113/2/6 112/2/6 114/2/6
f 111/2/6 113/2/6 115/2/6
f 115/2/6 113/2/6 116/2/6
f 117/4/6 118/4/6 119/4/6
f 119/4/6 118/4/6 120/4/6
